<?xml version="1.0" encoding="utf-8"?>
<!-- Generator: Adobe Illustrator 16.0.0, SVG Export Plug-In . SVG Version: 6.00 Build 0)  -->
<!DOCTYPE svg PUBLIC "-//W3C//DTD SVG 1.1//EN" "http://www.w3.org/Graphics/SVG/1.1/DTD/svg11.dtd">
<svg version="1.1" id="Layer_1" xmlns="http://www.w3.org/2000/svg" xmlns:xlink="http://www.w3.org/1999/xlink" x="0px" y="0px"
	 width="2508.125px" height="2508.116px" viewBox="0 0 2508.125 2508.116" enable-background="new 0 0 2508.125 2508.116"
	 xml:space="preserve">
<g>
	<path fill="#6D6E71" d="M1254.057,2508.116C561.476,2508.116,0,1946.63,0,1254.047C0,561.467,561.476,0,1254.057,0
		c692.613,0,1254.068,561.467,1254.068,1254.047C2508.125,1946.63,1946.67,2508.116,1254.057,2508.116z"/>
	<g>
		<path fill="#C7C8CA" d="M1254.057,363.431l32.103,1.69c5.268-23.352,12.567-45.966,22.117-68.891l0.59,0.112
			c4.47,23.642,10.286,46.848,16.975,70.779l12.702,0.592c13.262-23.206,28.494-41.902,46.93-63.241l0.301,0.052
			c-4.375,23.196-6.771,44.887-7.934,68.55l31.938,4.872c2.499-40.479,9.176-80.307,21.898-119.189l-36.062-5.527
			c-20.084,19.453-37.328,37.464-52.467,58.646c-3.411-21.89-5.631-43.528-6.553-65.47l-36.074-1.867
			C1277.709,283.849,1262.892,323.511,1254.057,363.431z"/>
		<path fill="#C7C8CA" d="M1418.621,379.274c11.322,1.285,22.366,3.94,33.316,7.029c4.499-5.785,9.238-11.519,14.184-17.233
			l44.473,11.417l1.068,21.101c11.197,2.51,21.691,7.601,32.527,11.188c0.104-42.959,2.965-84.952,10.307-125.09l-38.945-10.12
			C1474.998,309.449,1443.818,341.117,1418.621,379.274z M1511.506,354.74l-27.664-7.134c9.188-9.839,19.494-21.007,30.724-32.069
			l0.528,0.165C1513.311,329.161,1511.973,342.692,1511.506,354.74z"/>
		<path fill="#C7C8CA" d="M1551.893,415.618l30.309,11.021c6.223-13.832,13.335-28.11,21.247-41.838l0.415,0.259
			c2.332,17.513,4.654,35.358,7.009,53.256l36.467,17.596c-4.499-18.976-7.714-40.23-11.218-60.316
			c11.52,2.861,21.463,2.167,30.422-2.24c9.301-4.665,16.352-11.198,20.967-19.72c5.328-9.687,5.578-18.209,0.195-25.799
			c-4.883-6.959-11.975-12.713-21.121-17.088c-16.932-8.959-35.15-14.952-53.047-21.619
			C1586.972,342.434,1567.042,378.113,1551.893,415.618z M1651.498,359.023c-0.125,1.473-0.581,2.853-1.215,4.241
			c-2.467,4.604-5.868,7.507-10.379,8.771c-5.806,1.599-14.122-0.478-25.9-4.521c5.641-8.813,11.676-17.419,18.082-25.911
			c7.289,2.499,11.842,5.64,14.402,7.713C1649.994,352.397,1651.674,355.633,1651.498,359.023z"/>
		<path fill="#C7C8CA" d="M1654.66,459.456c9.57,4.864,19.711,8.751,28.867,14.455c21.027-34.383,46.317-66.298,77.684-94.439
			c-10.598-6.066-20.604-13.305-31.677-18.406C1698.904,391.084,1674.486,424.171,1654.66,459.456z"/>
		<path fill="#C7C8CA" d="M1721.26,485.391c5.692,15.107,15.896,26.43,30.121,35.129c19.109,13.821,38.199,18.136,58.875,14.143
			c20.676-4.064,37.648-13.365,50.268-28.265c9.706-11.168,13.501-23.933,10.732-38.78c-2.778-14.817-12.09-28.151-27.986-39.993
			c-17.927-14.361-40.926-19.981-65.158-18.487c-24.532,1.38-42.336,11.664-53.182,30.827
			C1716.334,454.988,1715.557,470.406,1721.26,485.391z M1785.775,438.49c12.38-1.586,23.506,1.411,32.838,8.782
			c8.107,6.088,12.764,13.232,13.873,21.372c1.15,7.951-0.477,14.641-4.779,19.938c-6.159,7.83-14.849,12.744-26.1,15.056
			c-11.519,2.334-21.961,0.083-31.791-7.051c-7.941-5.673-13.365-11.925-14.982-20.415c-1.659-8.192-0.508-15.658,3.805-22.274
			C1764.508,445.003,1773.561,439.839,1785.775,438.49z"/>
		<path fill="#C7C8CA" d="M1840.015,584.517l23.766,21.649c19.524-14.122,40.023-26.543,62.545-37.722l0.333,0.487
			c-11.956,20.385-23.082,41.849-34.281,64.816l8.503,9.352c24.574-7.972,49.47-13.011,77.58-17.139l0.239,0.229
			c-18.561,14.578-34.685,29.323-51.16,46.296c7.258,7.976,14.816,15.668,20.893,24.627c28.764-28.991,59.984-54.561,95.01-75.153
			c-6.967-10.026-15.283-18.924-23.506-27.903c-28.048,1.577-54.146,4.864-78.803,10.016c12.152-18.871,24.885-36.84,38.779-54.031
			c-7.839-9.218-16.674-17.399-25.643-25.342C1910.751,539.701,1873.153,560.118,1840.015,584.517z"/>
		<path fill="#C7C8CA" d="M1973.317,713.962c-0.271,16.135,4.718,30.661,14.993,43.778c12.733,19.834,28.639,30.981,49.377,34.933
			c20.717,3.889,39.796,1.492,57.081-7.601c13.128-6.823,21.484-17.191,24.315-32.155c2.996-14.765-0.695-30.66-11.012-47.572
			c-11.23-20.105-31.045-33.377-53.764-41.217c-23.309-7.797-43.58-4.872-60.762,8.929
			C1980.016,683.852,1973.629,697.911,1973.317,713.962z M2050.42,694.343c11.842,3.257,21.631,9.729,27.416,20.023
			c5.35,8.782,6.957,17.108,4.998,25.187c-1.949,7.755-5.921,13.323-11.862,16.745c-8.544,4.979-18.478,6.356-29.737,4.313
			c-11.551-2.104-20.375-8.057-26.794-18.373c-5.911-7.921-8.212-15.928-6.604-24.419c1.502-8.192,5.359-14.682,11.799-19.246
			C2028.408,692.467,2038.662,691.057,2050.42,694.343z"/>
		<path fill="#C7C8CA" d="M2118.213,1042.189l8.119,31.242c15.107-2.376,30.815-4.188,46.473-5.175l-0.094,0.55
			c-14.028,11.459-28.109,23.288-41.641,35.275l6.096,40.045c13.19-14.145,28.889-28.464,43.551-42.398
			c4.209,11.104,10.41,19.13,19.119,24.128c9.115,5.247,18.498,7.486,28.173,6.719c11.002-0.985,18.208-5.423,21.495-13.976
			c2.996-7.944,3.732-16.964,2.178-26.98c-3.329-18.821-4.625-38.075-10.203-56.438
			C2198.852,1031.354,2157.905,1034.289,2118.213,1042.189z M2219.744,1094.46c-1.305,0.757-2.686,1.182-4.188,1.327
			c-5.226,0.549-9.57-0.735-13.138-3.795c-4.718-3.951-7.881-11.956-9.663-24.336c10.307,0,20.675,0.279,31.044,1.089
			c1.09,7.579,1.473,12.981,1.152,16.33C2224.391,1089.689,2222.648,1092.821,2219.744,1094.46z"/>
		<path fill="#C7C8CA" d="M2089.159,918.281c-4.76,15.637-4.148,31.139,1.856,46.629c9.279,21.743,21.152,36.79,39.463,46.142
			c18.529,9.343,37.391,12.068,56.459,7.757c14.434-3.153,25.332-11.044,32.32-24.751c6.678-13.625,8.627-30.309,2.364-49.015
			c-7.839-21.607-21.889-40.189-41.538-53.846c-19.836-13.821-40.097-16.237-60.607-7.31
			C2103.811,890.804,2094.136,902.645,2089.159,918.281z M2167.932,919.609c10.307,6.356,17.543,15.345,21.598,26.461
			c3.567,9.653,3.516,17.948-0.984,25.321c-4.023,7.061-9.383,11.404-16,13.157c-9.569,2.571-19.42,1.244-29.499-3.618
			c-10.493-5.164-18.612-12.847-22.812-24.263c-3.453-9.157-3.256-17.618,0.57-25.446c3.743-7.611,9.28-12.878,16.684-15.626
			C2147.473,911.967,2157.614,913.242,2167.932,919.609z"/>
		<path fill="#C7C8CA" d="M2249.773,1170.185c-10.068-10.11-21.475-14.641-34.207-13.968c-7.082,0.425-12.442,3.12-15.958,7.828
			c-2.364,3.174-4.438,7.519-6.065,12.971c-0.851,2.874-2.001,7.601-3.318,14.135c-2.385,10.938-6.222,16.756-11.541,17.543
			c-3.795,0.301-7.029-1.098-9.799-4.085c-2.871-3.317-4.438-7.485-4.635-12.598c-0.238-6.367,0.913-12.235,3.558-17.358
			c2.426-5.008,4.997-8.988,7.61-12.204c-8.699-4.945-18.436-9.445-27.498-13.696c-3.215,5.401-4.615,11.965-7.176,19.813
			c-2.303,8.224-3.256,16.426-2.893,24.533c0.467,8.938,2.25,16.693,5.422,23.684c5.994,12.846,15.555,21.007,28.805,25.123
			c6.855,2.043,12.91,3.038,18.312,2.687c7.839-0.529,13.594-3.039,17.409-8.192c3.774-5.07,6.388-10.919,7.995-17.368
			c2.25-9.3,3.463-14.31,3.629-15.056c2.239-6.542,5.133-9.975,8.585-10.233c3.692,0.031,6.751,2.188,9.094,6.159
			c2.073,3.516,3.184,7.434,3.411,11.862c0.467,8.709-1.907,15.885-6.916,21.474c8.471,6.595,16.859,13.501,25.352,20.81
			c1.888-3.192,3.796-8.347,5.641-15.512c2.074-8.294,2.914-16.808,2.396-25.496
			C2265.908,1195.172,2260.131,1180.553,2249.773,1170.185z"/>
		<path fill="#C7C8CA" d="M2118.565,782.18c4.759,8.678,8.741,17.731,13.065,26.595c-31.906,7.279-62.09,18.167-89.506,30.994
			l13.979,29.116c27.881-11.894,58.635-21.724,91.09-27.914l12.91,26.824c8.752-1.327,18.996-2.903,27.736-3.526
			c-13.345-29.778-28.007-58.833-42.025-88.28C2137.105,777.409,2127.15,779.971,2118.565,782.18z"/>
	</g>
	<g>
		<path fill="#C7C8CA" d="M1254.057,2144.655l-32.112-1.67c-5.247,23.33-12.546,45.977-22.116,68.891l-0.55-0.104
			c-4.469-23.66-10.244-46.836-16.964-70.766l-12.702-0.623c-13.21,23.227-28.504,41.889-46.909,63.26l-0.342-0.061
			c4.376-23.176,6.792-44.867,8.005-68.539l-31.967-4.875c-2.541,40.461-9.177,80.297-21.89,119.191l36.063,5.527
			c20.054-19.441,37.286-37.473,52.467-58.648c3.349,21.891,5.651,43.488,6.574,65.471l36.052,1.877
			C1230.396,2224.259,1245.265,2184.606,1254.057,2144.655z"/>
		<path fill="#C7C8CA" d="M1089.523,2128.853c-11.292-1.305-22.356-3.949-33.295-7.041c-4.531,5.799-9.219,11.521-14.205,17.223
			l-44.482-11.395l-1.048-21.121c-11.25-2.51-21.702-7.611-32.548-11.168c-0.094,42.949-2.935,84.932-10.297,125.08l38.978,10.109
			C1033.188,2198.667,1064.348,2167.011,1089.523,2128.853z M996.659,2153.386l27.653,7.113
			c-9.218,9.84-19.523,21.027-30.744,32.082l-0.518-0.168C994.813,2178.954,996.141,2165.425,996.659,2153.386z"/>
		<path fill="#C7C8CA" d="M956.272,2092.489l-30.288-11.033c-6.221,13.863-13.365,28.121-21.287,41.861l-0.467-0.262
			c-2.209-17.512-4.604-35.379-6.916-53.254l-36.468-17.605c4.47,18.984,7.705,40.252,11.229,60.305
			c-11.529-2.842-21.546-2.146-30.421,2.26c-9.374,4.656-16.353,11.199-21.039,19.723c-5.237,9.684-5.568,18.209-0.167,25.777
			c4.916,6.979,12.05,12.734,21.144,17.119c16.891,8.949,35.098,14.941,53.058,21.598
			C921.163,2165.683,941.103,2130.005,956.272,2092.489z M856.669,2149.093c0.124-1.473,0.56-2.852,1.182-4.242
			c2.467-4.604,5.868-7.506,10.4-8.781c5.827-1.586,14.133,0.488,25.933,4.531c-5.651,8.805-11.737,17.42-18.094,25.912
			c-7.311-2.498-11.842-5.631-14.455-7.705C858.12,2155.718,856.503,2152.493,856.669,2149.093z"/>
		<path fill="#C7C8CA" d="M853.475,2048.659c-9.58-4.861-19.66-8.75-28.815-14.463c-21.091,34.393-46.328,66.309-77.756,94.439
			c10.639,6.086,20.613,13.312,31.729,18.414C809.272,2117.042,833.691,2083.935,853.475,2048.659z"/>
		<path fill="#C7C8CA" d="M786.875,2022.737c-5.713-15.117-15.916-26.439-30.08-35.131c-19.109-13.832-38.188-18.164-58.915-14.152
			c-20.677,4.053-37.62,13.365-50.291,28.256c-9.694,11.176-13.499,23.932-10.71,38.799c2.83,14.807,12.142,28.143,28.037,39.975
			c17.865,14.369,40.896,19.99,65.085,18.486c24.628-1.379,42.337-11.654,53.235-30.816
			C791.821,2053.118,792.619,2037.71,786.875,2022.737z M722.37,2069.636c-12.349,1.576-23.507-1.42-32.797-8.793
			c-8.191-6.076-12.795-13.219-13.884-21.381c-1.162-7.941,0.477-14.619,4.77-19.92c6.117-7.838,14.807-12.773,26.099-15.074
			c11.521-2.334,21.951-0.074,31.739,7.072c8.025,5.66,13.428,11.912,14.983,20.416c1.731,8.182,0.519,15.637-3.795,22.252
			C743.658,2063.124,734.615,2068.267,722.37,2069.636z"/>
		<path fill="#C7C8CA" d="M668.162,1923.591l-23.85-21.662c-19.472,14.152-39.982,26.566-62.472,37.742l-0.332-0.486
			c11.976-20.396,23.04-41.859,34.279-64.805l-8.472-9.363c-24.646,7.973-49.542,13.012-77.642,17.129l-0.198-0.229
			c18.551-14.58,34.686-29.322,51.109-46.287c-7.206-7.973-14.744-15.668-20.863-24.627c-28.741,28.982-60.015,54.553-94.979,75.156
			c6.958,10.016,15.222,18.922,23.506,27.912c28.048-1.586,54.126-4.873,78.805-10.037c-12.235,18.871-24.886,36.842-38.843,54.043
			c7.84,9.219,16.715,17.389,25.684,25.352C597.363,1968.415,634.98,1947.989,668.162,1923.591z"/>
		<path fill="#C7C8CA" d="M534.807,1794.153c0.26-16.123-4.728-30.67-14.983-43.775c-12.743-19.848-28.639-30.984-49.376-34.934
			c-20.696-3.889-39.816-1.533-57.102,7.602c-13.106,6.822-21.433,17.191-24.306,32.143c-2.935,14.775,0.758,30.67,11.002,47.582
			c11.229,20.096,31.075,33.389,53.814,41.217c23.289,7.809,43.55,4.873,60.762-8.928
			C528.16,1824.245,534.547,1810.194,534.807,1794.153z M457.704,1813.772c-11.842-3.225-21.6-9.736-27.416-20.012
			c-5.36-8.793-6.978-17.119-4.967-25.205c1.908-7.748,5.952-13.305,11.831-16.738c8.586-4.986,18.54-6.377,29.77-4.312
			c11.582,2.084,20.405,8.066,26.813,18.375c5.91,7.91,8.15,15.926,6.595,24.418c-1.482,8.18-5.392,14.693-11.81,19.234
			C479.769,1815.649,469.524,1817.06,457.704,1813.772z"/>
		<path fill="#C7C8CA" d="M389.922,1465.926l-8.088-31.251c-15.076,2.395-30.815,4.211-46.483,5.184l0.021-0.551
			c14.102-11.455,28.235-23.297,41.757-35.285l-6.119-40.033c-13.199,14.154-28.96,28.453-43.549,42.398
			c-4.21-11.115-10.462-19.121-19.121-24.129c-9.166-5.256-18.498-7.496-28.183-6.719c-11.021,0.986-18.248,5.414-21.536,13.967
			c-2.934,7.964-3.681,16.975-2.166,26.991c3.38,18.798,4.646,38.085,10.171,56.429
			C309.314,1476.763,350.271,1473.806,389.922,1465.926z M288.411,1413.647c1.275-0.746,2.705-1.174,4.188-1.328
			c5.257-0.539,9.57,0.756,13.199,3.816c4.614,3.939,7.809,11.943,9.592,24.324c-10.317,0-20.654-0.322-31.024-1.09
			c-1.13-7.568-1.534-12.992-1.15-16.33C283.745,1418.437,285.466,1415.284,288.411,1413.647z"/>
		<path fill="#C7C8CA" d="M418.996,1589.834c4.781-15.636,4.21-31.138-1.907-46.638c-9.27-21.734-21.132-36.77-39.402-46.143
			c-18.581-9.32-37.433-12.059-56.448-7.744c-14.443,3.129-25.341,11.032-32.372,24.75c-6.677,13.623-8.647,30.287-2.302,49.013
			c7.839,21.599,21.889,40.189,41.527,53.825c19.815,13.832,40.118,16.26,60.555,7.332
			C404.314,1617.312,414.009,1605.471,418.996,1589.834z M340.254,1588.519c-10.368-6.377-17.554-15.367-21.639-26.482
			c-3.598-9.652-3.474-17.949,1.006-25.32c3.981-7.051,9.394-11.396,16.029-13.17c9.551-2.541,19.4-1.223,29.489,3.65
			c10.441,5.143,18.54,12.836,22.75,24.232c3.453,9.176,3.245,17.637-0.58,25.476c-3.733,7.601-9.219,12.868-16.622,15.605
			C360.641,1596.13,350.521,1594.873,340.254,1588.519z"/>
		<path fill="#C7C8CA" d="M258.351,1337.923c10.089,10.109,21.537,14.641,34.229,13.965c7.123-0.424,12.463-3.1,15.989-7.838
			c2.363-3.162,4.374-7.507,6.044-12.939c0.86-2.893,1.961-7.611,3.287-14.154c2.417-10.938,6.273-16.756,11.604-17.545
			c3.773-0.301,7.061,1.08,9.768,4.087c2.872,3.317,4.438,7.497,4.676,12.599c0.229,6.354-0.985,12.244-3.588,17.355
			c-2.468,5.029-5.05,8.99-7.601,12.205c8.7,4.947,18.405,9.446,27.437,13.697c3.214-5.401,4.656-11.955,7.186-19.814
			c2.364-8.201,3.308-16.425,2.872-24.533c-0.394-8.938-2.24-16.684-5.392-23.684c-6.004-12.846-15.512-21.008-28.753-25.123
			c-6.864-2.021-12.961-3.037-18.384-2.654c-7.777,0.51-13.595,3.008-17.327,8.16c-3.815,5.07-6.407,10.918-8.025,17.368
			c-2.239,9.312-3.452,14.319-3.618,15.076c-2.313,6.521-5.133,9.954-8.638,10.214c-3.671-0.031-6.739-2.188-9.052-6.16
			c-2.126-3.524-3.204-7.434-3.453-11.861c-0.395-8.709,1.907-15.887,6.979-21.463c-8.481-6.605-16.891-13.512-25.394-20.833
			c-1.918,3.216-3.764,8.359-5.61,15.533c-2.135,8.294-2.976,16.787-2.415,25.487
			C242.206,1312.933,248.024,1327.552,258.351,1337.923z"/>
		<path fill="#C7C8CA" d="M389.611,1725.927c-4.781-8.668-8.73-17.721-13.138-26.576c31.926-7.297,62.172-18.197,89.587-31.002
			l-14.008-29.127c-27.913,11.904-58.678,21.725-91.122,27.914l-12.836-26.805c-8.824,1.316-19.08,2.904-27.769,3.494
			c13.354,29.791,27.995,58.855,42.046,88.293C371.02,1730.698,381.035,1728.147,389.611,1725.927z"/>
	</g>
	<g>
		<g>
			<path fill="#4D4D4F" d="M2323.869,1731.94c-23.111,21.557-49.314,45.977-105.016,38.023
				c-10.598-1.523-20.416,5.816-21.951,16.455c-0.135,0.945-0.197,1.865-0.197,2.789c0,9.5,6.988,17.793,16.663,19.143
				c74.075,10.598,111.881-24.668,136.932-47.998c0,0,43.321-42.203,83.999-81.729c9.26-25.809,17.512-52.154,25.165-78.711
				C2419.813,1638.487,2323.869,1731.94,2323.869,1731.94z"/>
			<path fill="#4D4D4F" d="M2285.442,1967.202c-11.28-22.18-18.156-49.014-4.438-88.344c3.525-10.141-1.845-21.162-11.976-24.668
				c-0.86-0.354-1.784-0.549-2.675-0.725c-9.312-1.846-18.82,3.461-22.045,12.67c-22.531,64.857-1.379,107.027,16.279,135.998
				C2269.132,1990.677,2277.303,1978.981,2285.442,1967.202z"/>
		</g>
		<g>
			<path fill="#4D4D4F" d="M1731.98,184.276c21.516,23.133,45.945,49.334,37.981,104.964c-1.534,10.629,5.839,20.438,16.487,21.962
				c0.87,0.156,1.855,0.219,2.779,0.219c9.445,0,17.793-7.011,19.182-16.653c10.545-74.087-24.709-111.912-48.049-136.932
				c0,0-42.16-43.353-81.729-83.979c-25.809-9.278-52.145-17.543-78.689-25.175C1638.535,88.312,1731.98,184.276,1731.98,184.276z"
				/>
			<path fill="#4D4D4F" d="M1967.242,222.703c-22.191,11.23-49.035,18.114-88.334,4.396c-10.119-3.505-21.193,1.878-24.72,11.987
				c-0.321,0.901-0.55,1.793-0.735,2.716c-1.846,9.26,3.463,18.799,12.67,22.024c64.879,22.521,107.039,1.357,136.01-16.301
				C1990.737,239.004,1978.989,230.812,1967.242,222.703z"/>
		</g>
		<g>
			<path fill="#4D4D4F" d="M184.306,776.176c23.123-21.547,49.315-45.977,104.966-38.023c10.616,1.524,20.447-5.817,21.971-16.444
				c0.104-0.954,0.167-1.877,0.167-2.801c0-9.507-6.979-17.804-16.653-19.15c-74.044-10.607-111.88,24.678-136.922,48.019
				c0,0-43.342,42.19-83.946,81.706c-9.321,25.81-17.574,52.166-25.175,78.722C88.342,869.631,184.306,776.176,184.306,776.176z"/>
			<path fill="#4D4D4F" d="M222.744,540.916c11.229,22.168,18.073,49.023,4.416,88.333c-3.545,10.129,1.805,21.162,11.936,24.678
				c0.924,0.352,1.784,0.561,2.706,0.725c9.321,1.845,18.8-3.453,22.003-12.671c22.553-64.866,1.38-107.037-16.289-136.008
				C239.033,517.431,230.853,529.137,222.744,540.916z"/>
		</g>
		<g>
			<path fill="#4D4D4F" d="M776.144,2323.831c-21.515-23.113-45.913-49.336-37.95-104.945c1.492-10.637-5.89-20.447-16.486-21.982
				c-0.924-0.145-1.846-0.207-2.759-0.207c-9.498,0-17.834,7.01-19.172,16.654c-10.607,74.074,24.668,111.898,47.987,136.932
				c0,0,42.213,43.342,81.718,83.986c25.87,9.271,52.135,17.533,78.762,25.176C869.64,2419.813,776.144,2323.831,776.144,2323.831z"
				/>
			<path fill="#4D4D4F" d="M540.956,2285.413c22.116-11.229,48.982-18.115,88.322-4.408c10.12,3.516,21.184-1.875,24.688-11.984
				c0.291-0.893,0.54-1.785,0.747-2.705c1.783-9.271-3.453-18.801-12.702-22.025c-64.888-22.531-107.007-1.369-136.04,16.299
				C517.449,2269.114,529.156,2277.284,540.956,2285.413z"/>
		</g>
		<g>
			<path fill="#4D4D4F" d="M2419.492,1133.032c-9.219,30.214-19.723,64.442-71.898,85.367c-9.965,4.012-14.807,15.315-10.824,25.279
				c0.383,0.851,0.787,1.711,1.213,2.479c4.758,8.231,15.004,11.936,24.056,8.294c69.368-27.881,84.568-77.331,94.585-110.045
				c0,0,16.434-58.243,31.822-112.752c-4.832-27.053-10.825-53.949-17.576-80.773
				C2455.896,1004.074,2419.492,1133.032,2419.492,1133.032z"/>
			<path fill="#4D4D4F" d="M2503.822,1355.995c-20.811-13.604-40.17-33.42-47.988-74.324c-2.011-10.505-12.162-17.42-22.687-15.42
				c-0.923,0.188-1.846,0.416-2.717,0.747c-8.989,3.08-14.568,12.37-12.722,21.972c12.898,67.514,52.301,93.394,82.08,109.683
				C2501.457,1384.468,2502.671,1370.211,2503.822,1355.995z"/>
		</g>
		<g>
			<path fill="#4D4D4F" d="M1133.083,88.612c30.235,9.28,64.442,19.773,85.336,71.96c4.034,9.935,15.325,14.745,25.311,10.754
				c0.85-0.321,1.721-0.759,2.54-1.213c8.172-4.739,11.852-14.953,8.213-24.025c-27.851-69.42-77.28-84.538-110.056-94.585
				c0,0-58.19-16.414-112.741-31.853c-27.021,4.894-53.918,10.887-80.805,17.585C1004.155,52.27,1133.083,88.612,1133.083,88.612z"
				/>
			<path fill="#4D4D4F" d="M1356.024,4.282c-13.562,20.83-33.378,40.189-74.272,48.019c-10.566,1.98-17.441,12.184-15.439,22.708
				c0.188,0.924,0.415,1.845,0.727,2.706c3.068,8.948,12.41,14.548,21.961,12.702c67.439-12.878,93.443-52.311,109.715-82.092
				C1384.519,6.677,1370.25,5.433,1356.024,4.282z"/>
		</g>
		<g>
			<path fill="#4D4D4F" d="M88.685,1375.022c9.218-30.186,19.722-64.422,71.888-85.357c9.975-4.013,14.807-15.273,10.835-25.25
				c-0.394-0.857-0.787-1.689-1.202-2.488c-4.76-8.242-15.025-11.934-24.077-8.305c-69.368,27.883-84.559,77.332-94.544,110.045
				c0,0-16.466,58.223-31.842,112.773c4.841,27.053,10.824,53.949,17.513,80.783C52.278,1503.97,88.685,1375.022,88.685,1375.022z"
				/>
			<path fill="#4D4D4F" d="M4.302,1152.08c20.863,13.645,40.211,33.418,48.039,74.303c2.013,10.556,12.173,17.452,22.697,15.439
				c0.924-0.186,1.847-0.415,2.707-0.736c8.938-3.067,14.526-12.39,12.733-21.962c-12.899-67.5-52.301-93.382-82.091-109.682
				C6.719,1123.618,5.505,1137.864,4.302,1152.08z"/>
		</g>
		<g>
			<path fill="#4D4D4F" d="M1375.104,2419.452c-30.215-9.26-64.443-19.723-85.408-71.93c-3.992-9.943-15.285-14.785-25.229-10.752
				c-0.892,0.32-1.731,0.746-2.52,1.213c-8.201,4.738-11.914,14.943-8.273,24.025c27.861,69.43,77.311,84.527,110.107,94.543
				c0,0,58.17,16.455,112.689,31.863c27.041-4.873,53.938-10.865,80.773-17.543
				C1504.03,2455.815,1375.104,2419.452,1375.104,2419.452z"/>
			<path fill="#4D4D4F" d="M1152.13,2503.823c13.595-20.82,33.441-40.199,74.325-48.039c10.515-2.021,17.42-12.162,15.439-22.738
				c-0.208-0.881-0.456-1.773-0.778-2.635c-3.068-8.99-12.359-14.578-21.93-12.762c-67.45,12.93-93.424,52.33-109.683,82.15
				C1123.689,2501.407,1137.904,2502.612,1152.13,2503.823z"/>
		</g>
		<g>
			<path fill="#4D4D4F" d="M2202.834,566.506c7.081,30.836,15.148,65.707-19.525,109.941c-6.678,8.419-5.195,20.696,3.256,27.28
				c0.727,0.561,1.523,1.1,2.302,1.525c8.202,4.729,18.934,2.861,24.948-4.844c46.162-58.864,34.58-109.215,26.865-142.562
				c0,0-14.869-58.624-28.732-113.6c-17.814-20.997-36.415-41.311-55.66-61.157C2169.881,436.678,2202.834,566.506,2202.834,566.506
				z"/>
			<path fill="#4D4D4F" d="M2387.4,717.468c-24.824-1.359-51.523-8.866-78.762-40.356c-6.969-8.067-19.225-9.032-27.375-2.013
				c-0.715,0.612-1.316,1.275-1.929,1.972c-6.241,7.184-6.448,18-0.062,25.382c44.928,52.032,92.044,54.737,125.93,53.95
				C2399.553,743.306,2393.455,730.365,2387.4,717.468z"/>
		</g>
		<g>
			<path fill="#4D4D4F" d="M566.608,305.24c30.755-7.02,65.636-15.076,109.879,19.619c8.409,6.604,20.686,5.162,27.312-3.289
				c0.519-0.704,1.089-1.523,1.503-2.301c4.781-8.172,2.82-18.913-4.79-24.938c-58.864-46.173-109.288-34.561-142.635-26.876
				c0,0-58.616,14.869-113.592,28.774c-20.976,17.771-41.247,36.384-61.156,55.617C436.759,338.255,566.608,305.24,566.608,305.24z"
				/>
			<path fill="#4D4D4F" d="M717.497,120.767c-1.317,24.792-8.804,51.491-40.356,78.68c-8.139,7.04-8.979,19.317-1.918,27.425
				c0.528,0.717,1.214,1.338,1.918,1.992c7.176,6.189,17.959,6.397,25.445,0c51.907-44.868,54.727-92.024,53.866-125.963
				C743.336,108.552,730.405,114.64,717.497,120.767z"/>
		</g>
		<g>
			<path fill="#4D4D4F" d="M305.28,1941.538c-7.02-30.754-15.086-65.688,19.608-109.879c6.614-8.502,5.163-20.625-3.276-27.229
				c-0.716-0.59-1.463-1.15-2.313-1.576c-8.201-4.812-18.902-2.842-24.896,4.789c-46.204,58.834-34.632,109.268-26.917,142.635
				c0,0,14.868,58.596,28.763,113.592c17.783,20.904,36.405,41.248,55.641,61.137C338.285,2071.388,305.28,1941.538,305.28,1941.538
				z"/>
			<path fill="#4D4D4F" d="M120.787,1790.64c24.874,1.348,51.513,8.814,78.762,40.355c6.958,8.131,19.213,8.99,27.354,1.959
				c0.725-0.547,1.369-1.244,2-1.959c6.223-7.145,6.388-18,0-25.414c-44.876-51.947-92.034-54.654-125.93-53.928
				C108.623,1764.759,114.669,1777.741,120.787,1790.64z"/>
		</g>
		<g>
			<path fill="#4D4D4F" d="M1941.588,2202.782c-30.774,7.115-65.656,15.18-109.898-19.586c-8.42-6.637-20.635-5.162-27.25,3.338
				c-0.57,0.717-1.152,1.537-1.557,2.303c-4.728,8.191-2.84,18.861,4.844,24.947c58.863,46.172,109.215,34.498,142.572,26.865
				c0,0,58.646-14.92,113.592-28.836c20.902-17.709,41.247-36.404,61.155-55.545
				C2071.418,2169.862,1941.588,2202.782,1941.588,2202.782z"/>
			<path fill="#4D4D4F" d="M1790.668,2387.351c1.422-24.814,8.865-51.504,40.389-78.752c8.066-7.029,8.958-19.236,1.887-27.363
				c-0.498-0.727-1.193-1.318-1.887-1.92c-7.207-6.25-18.033-6.449-25.373-0.061c-52.002,44.865-54.717,92.014-53.949,125.949
				C1764.851,2399.503,1777.77,2393.415,1790.668,2387.351z"/>
		</g>
	</g>
	<path fill="#1A1A1A" d="M2095.671,1254.047c0,464.778-376.808,841.624-841.614,841.624c-464.787,0-841.612-376.846-841.612-841.624
		c0-464.816,376.825-841.624,841.612-841.624C1718.863,412.423,2095.671,789.23,2095.671,1254.047z"/>
	<path fill="#004071" d="M2067.695,1254.047c0,449.368-364.291,813.661-813.639,813.661c-449.337,0-813.69-364.293-813.69-813.661
		c0-449.378,364.354-813.668,813.69-813.668C1703.404,440.379,2067.695,804.669,2067.695,1254.047z"/>
	<path fill="#DA2128" d="M2033.001,1254.047c0,430.167-348.748,778.903-778.944,778.903c-430.195,0-778.934-348.736-778.934-778.903
		c0-430.207,348.738-778.943,778.934-778.943C1684.253,475.104,2033.001,823.84,2033.001,1254.047z"/>
	<path fill="#00244C" d="M1477.527,1941.954c-379.885,123.451-787.893-84.467-911.386-464.424
		c-123.4-379.888,84.486-787.998,464.454-911.418c379.835-123.412,787.945,84.516,911.387,464.382
		C2065.394,1410.474,1857.496,1818.47,1477.527,1941.954z"/>
	<path d="M1441.973,1832.376c-319.425,103.771-662.459-70.998-766.272-390.424c-103.731-319.435,71.079-662.49,390.452-766.272
		c319.424-103.729,662.479,71.048,766.262,390.41C1936.156,1385.524,1761.346,1728.56,1441.973,1832.376z"/>
	<path fill="#4D4D4F" d="M1431.676,1800.749c-301.921,98.133-626.198-67.119-724.341-369.102
		c-98.068-301.902,67.149-626.243,369.112-724.321c301.881-98.111,626.241,67.128,724.352,369.061
		C1898.848,1378.341,1733.619,1702.618,1431.676,1800.749z"/>
	<g>
		<g>
			<g>
				<path d="M1445.498,769.757c0-12.017,9.715-21.754,21.723-21.754l0,0c12.08,0,21.775,9.737,21.775,21.754l0,0
					c0,12.037-9.695,21.755-21.775,21.755l0,0C1455.213,791.512,1445.498,781.794,1445.498,769.757L1445.498,769.757z"/>
				<path d="M1588.07,905.994c0-12.007,9.768-21.732,21.785-21.732l0,0c12.008,0,21.766,9.726,21.766,21.732l0,0
					c0,12.059-9.758,21.766-21.766,21.766l0,0C1597.838,927.76,1588.07,918.053,1588.07,905.994L1588.07,905.994z"/>
				<path d="M1467.221,914.933c0-12.029,9.778-21.733,21.775-21.733l0,0c12.027,0,21.773,9.704,21.773,21.733l0,0
					c0,12.048-9.746,21.753-21.773,21.753l0,0C1476.999,936.686,1467.221,926.98,1467.221,914.933L1467.221,914.933z"/>
			</g>
			<g>
				<path d="M852.646,922.335c-11.396-3.732-17.72-15.968-13.978-27.383l0,0c3.723-11.458,15.989-17.71,27.426-14.009l0,0
					c11.437,3.701,17.658,15.999,13.977,27.437l0,0C876.338,919.815,864.051,926.069,852.646,922.335L852.646,922.335z"/>
				<path d="M1026.272,828.819c-11.405-3.702-17.658-15.989-13.945-27.416l0,0c3.701-11.438,15.979-17.689,27.425-13.968l0,0
					c11.427,3.712,17.711,15.989,13.946,27.416l0,0C1050.007,826.299,1037.74,832.552,1026.272,828.819L1026.272,828.819z"/>
				<path d="M997.426,946.517c-11.427-3.701-17.647-16.021-13.987-27.416l0,0c3.774-11.479,16-17.71,27.415-13.978l0,0
					c11.458,3.712,17.731,15.988,13.999,27.447l0,0C1021.099,943.966,1008.874,950.218,997.426,946.517L997.426,946.517z"/>
			</g>
			<g>
				<path d="M814.539,1533.325c-7.082,9.705-20.695,11.883-30.391,4.801l0,0c-9.768-7.084-11.903-20.707-4.863-30.412l0,0
					c7.082-9.758,20.676-11.895,30.444-4.791l0,0C819.465,1509.952,821.601,1523.577,814.539,1533.325L814.539,1533.325z"/>
				<path d="M779.223,1339.249c-7.04,9.727-20.613,11.883-30.391,4.832l0,0c-9.706-7.092-11.841-20.686-4.801-30.379l0,0
					c7.081-9.739,20.676-11.967,30.401-4.875l0,0C784.21,1315.909,786.305,1329.503,779.223,1339.249L779.223,1339.249z"/>
				<path d="M882.279,1403.07c-7.081,9.716-20.696,11.841-30.411,4.81l0,0c-9.747-7.081-11.831-20.676-4.812-30.41l0,0
					c7.04-9.716,20.676-11.883,30.381-4.812l0,0C887.185,1379.739,889.351,1393.364,882.279,1403.07L882.279,1403.07z"/>
			</g>
			<g>
				<path d="M1383.844,1758.351c7.051,9.707,4.926,23.352-4.82,30.402l0,0c-9.717,7.092-23.383,4.945-30.422-4.791l0,0
					c-7.093-9.715-4.916-23.311,4.82-30.391l0,0C1363.168,1746.458,1376.763,1748.646,1383.844,1758.351L1383.844,1758.351z"/>
				<path d="M1188.391,1731.962c7.03,9.707,4.884,23.33-4.842,30.4l0,0c-9.727,7.053-23.32,4.916-30.37-4.799l0,0
					c-7.072-9.736-4.968-23.342,4.789-30.393l0,0C1167.694,1720.069,1181.288,1722.206,1188.391,1731.962L1188.391,1731.962z"/>
				<path d="M1280.902,1653.698c7.07,9.705,4.904,23.34-4.771,30.391l0,0c-9.788,7.072-23.381,4.904-30.483-4.791l0,0
					c-7.03-9.736-4.833-23.361,4.873-30.402l0,0C1260.247,1641.815,1273.842,1643.981,1280.902,1653.698L1280.902,1653.698z"/>
			</g>
			<g>
				<path d="M1773.777,1286.45c11.426-3.691,23.734,2.562,27.436,13.967l0,0c3.775,11.459-2.551,23.744-13.997,27.416l0,0
					c-11.426,3.764-23.672-2.52-27.415-13.967l0,0C1756.1,1302.439,1762.393,1290.163,1773.777,1286.45L1773.777,1286.45z"/>
				<path d="M1688.287,1464.185c11.374-3.734,23.672,2.541,27.426,13.956l0,0c3.701,11.479-2.52,23.694-13.979,27.437l0,0
					c-11.438,3.691-23.734-2.529-27.426-13.967l0,0C1670.607,1480.175,1676.85,1467.917,1688.287,1464.185L1688.287,1464.185z"/>
				<path d="M1642.436,1351.981c11.395-3.701,23.734,2.582,27.436,13.999l0,0c3.691,11.427-2.551,23.683-13.967,27.446l0,0
					c-11.458,3.682-23.725-2.592-27.447-13.998l0,0C1624.715,1368.002,1631.019,1355.716,1642.436,1351.981L1642.436,1351.981z"/>
			</g>
		</g>
		<g>
			<path d="M1445.498,769.757c0-12.017,9.715-21.754,21.723-21.754l0,0c12.08,0,21.775,9.737,21.775,21.754l0,0
				c0,12.037-9.695,21.755-21.775,21.755l0,0C1455.213,791.512,1445.498,781.794,1445.498,769.757L1445.498,769.757z"/>
			<path d="M1588.07,905.994c0-12.007,9.768-21.732,21.785-21.732l0,0c12.008,0,21.766,9.726,21.766,21.732l0,0
				c0,12.059-9.758,21.766-21.766,21.766l0,0C1597.838,927.76,1588.07,918.053,1588.07,905.994L1588.07,905.994z"/>
			<path d="M1467.221,914.933c0-12.029,9.778-21.733,21.775-21.733l0,0c12.027,0,21.773,9.704,21.773,21.733l0,0
				c0,12.048-9.746,21.753-21.773,21.753l0,0C1476.999,936.686,1467.221,926.98,1467.221,914.933L1467.221,914.933z"/>
		</g>
	</g>
	<path fill="#004071" d="M2023.658,1003.97c-43.031-132.565-175.162-109.486-175.162-109.486l-42.781,5.829l0,0l-142.137,19.338
		l-142.158,19.338c-23.506,3.162-46.132-13.272-50.352-36.633l-25.57-141.184l-25.539-141.132c0,0,0,0,0-0.03l-7.683-42.441
		c0,0-18.894-132.763-158.251-132.763c-139.327,0-158.219,132.763-158.219,132.763l-7.652,42.441v0.03l-25.528,141.132
		l-25.569,141.215c-4.221,23.329-26.907,39.826-50.424,36.602L844.475,919.65l-142.158-19.309l0,0l-42.761-5.827
		c0,0-132.09-23.039-175.152,109.455c-43.051,132.557,77.363,191.492,77.363,191.492l164.378,88.344l126.377,67.928
		c20.882,11.219,29.593,37.93,19.254,59.311L809.5,1540.229l-81.054,168.07c0,0-62.764,118.518,49.947,200.389
		c112.752,81.904,206.02-14.359,206.02-14.359l31.222-29.863l0,0l103.605-99.199l103.596-99.158c17.16-16.424,45.27-16.424,62.39,0
		l103.669,99.158l134.816,129.062c0,0,93.319,96.264,206.009,14.422c112.741-81.965,49.958-200.451,49.958-200.451l-81.064-168.07
		l-62.285-129.217c-10.318-21.35-1.648-48.061,19.256-59.279l126.334-67.959l164.346-88.321
		C1946.264,1195.453,2066.752,1136.475,2023.658,1003.97z"/>
	<path fill="#DA2128" d="M1983.531,1016.982c-17.908-55.121-72.873-45.528-72.873-45.528l-500.84,68.164l-89.971-497.408
		c0,0-7.881-55.213-65.822-55.213c-57.961,0-65.749,55.213-65.749,55.213l-89.981,497.439l-500.891-68.135
		c0,0-54.936-9.591-72.873,45.499c-17.896,55.101,32.226,79.645,32.226,79.645l445.263,239.272l-219.572,455.311
		c0,0-26.099,49.293,20.738,83.312c46.879,34.094,85.698-5.971,85.698-5.971l365.216-349.547l365.141,349.547
		c0,0,38.801,40.064,85.697,5.971c46.828-34.02,20.739-83.312,20.739-83.312l-219.573-455.342l445.263-239.272
		C1951.366,1096.627,2001.428,1072.114,1983.531,1016.982z M1254.057,1254.037l0.043,0.01h-0.043h-0.031l0,0L1254.057,1254.037z"/>
	<path fill="#DA2128" d="M1547.104,1254.047c0,161.817-131.219,293.036-293.047,293.036c-161.837,0-293.035-131.219-293.035-293.036
		c0-161.858,131.198-293.025,293.035-293.025C1415.885,961.021,1547.104,1092.188,1547.104,1254.047z"/>
	<path fill="#262626" d="M1488.996,1254.047c0,129.748-105.172,234.938-234.939,234.938c-129.746,0-234.918-105.19-234.918-234.938
		c0-129.767,105.172-234.959,234.918-234.959C1383.824,1019.088,1488.996,1124.28,1488.996,1254.047z"/>
	<path fill="#939598" d="M1435.752,1254.047c0,100.3-81.387,181.653-181.695,181.653s-181.684-81.354-181.684-181.653
		c0-100.35,81.375-181.661,181.684-181.661S1435.752,1153.697,1435.752,1254.047z"/>
	<path fill="#A7A9AC" d="M1371.982,1254.047c0,65.106-52.799,117.886-117.926,117.886c-65.106,0-117.915-52.779-117.915-117.886
		c0-65.127,52.809-117.903,117.915-117.903C1319.184,1136.144,1371.982,1188.92,1371.982,1254.047z"/>
	<path fill="#939598" d="M1353.442,1254.047c0,54.895-44.503,99.397-99.386,99.397c-54.872,0-99.386-44.503-99.386-99.397
		c0-54.892,44.514-99.427,99.386-99.427C1308.939,1154.62,1353.442,1199.155,1353.442,1254.047z"/>
	<path d="M1279.938,1104.27c0,14.309-11.592,25.891-25.881,25.891c-14.287,0-25.892-11.582-25.892-25.891
		c0-14.319,11.604-25.902,25.892-25.902C1268.346,1078.367,1279.938,1089.95,1279.938,1104.27z"/>
	<path d="M1119.613,1183.124c13.625,4.449,21.081,19.067,16.622,32.662c-4.376,13.562-19.049,21.049-32.601,16.611
		c-13.655-4.449-21.059-19.048-16.632-32.652C1091.38,1186.173,1106,1178.706,1119.613,1183.124z"/>
	<path d="M1145.111,1360.019c8.398-11.582,24.595-14.164,36.114-5.734c11.665,8.398,14.153,24.594,5.765,36.156
		c-8.409,11.592-24.584,14.133-36.167,5.754C1139.264,1387.776,1136.691,1371.569,1145.111,1360.019z"/>
	<path d="M1321.164,1390.472c-8.398-11.594-5.857-27.758,5.703-36.156c11.582-8.461,27.84-5.848,36.178,5.672
		c8.451,11.655,5.816,27.82-5.714,36.219C1345.76,1404.636,1329.553,1402.054,1321.164,1390.472z"/>
	<path d="M1404.562,1232.397c-13.668,4.438-28.309-3.049-32.643-16.611c-4.5-13.635,3.027-28.213,16.591-32.662
		c13.624-4.418,28.192,3.049,32.601,16.652C1425.549,1213.35,1418.166,1227.948,1404.562,1232.397z"/>
	<g>
		<path fill="#C1272D" d="M1254.057,961.021c32.951,0,64.516,5.684,94.088,15.71l-59.113-326.829c0,0-3.795-35.68-34.975-35.68
			c-31.189,0-34.963,35.68-34.963,35.68l-59.124,326.829C1189.541,966.705,1221.104,961.021,1254.057,961.021z"/>
		<path fill="#C1272D" d="M1326.92,953.142c-24.045-5.869-48.443-8.834-72.863-8.834c-24.429,0-48.806,2.965-72.831,8.834
			l54.323-300.242c0.59-4.594,3.483-21.95,18.508-21.95c15.035,0,17.928,17.356,18.354,20.841L1326.92,953.142z"/>
		<path d="M1289.031,649.902c0,0-3.795-35.68-34.975-35.68c-31.189,0-34.963,35.68-34.963,35.68l16.455,2.997
			c0.59-4.594,3.483-21.95,18.508-21.95c15.035,0,17.928,17.356,18.354,20.841L1289.031,649.902z"/>
	</g>
	<g>
		<path fill="#C1272D" d="M975.372,1163.486c10.172-31.347,25.341-59.612,44.006-84.643l-329.099-44.753
			c0,0-35.1-7.444-44.764,22.212c-9.612,29.665,23.164,44.306,23.164,44.306l292.559,157.203
			C960.824,1226.621,965.169,1194.82,975.372,1163.486z"/>
		<path fill="#C1272D" d="M990.376,1091.773c-13.013,21.018-23.383,43.332-30.931,66.527c-7.549,23.258-12.245,47.344-14.092,72.002
			L676.58,1085.874c-4.146-1.98-19.793-10.079-15.169-24.388c4.676-14.289,22.076-11.665,25.519-11.021L990.376,1091.773z"/>
		<path d="M690.279,1034.091c0,0-35.1-7.444-44.764,22.212c-9.612,29.665,23.164,44.306,23.164,44.306l7.9-14.734
			c-4.146-1.98-19.793-10.079-15.169-24.388c4.676-14.289,22.076-11.665,25.519-11.021L690.279,1034.091z"/>
	</g>
	<g>
		<path fill="#C1272D" d="M1081.809,1491.093c-26.679-19.359-48.899-42.504-66.931-68.021l-144.242,299.166
			c0,0-17.928,31.105,7.3,49.428c25.237,18.33,49.272-8.338,49.272-8.338l239.937-229.641
			C1137.334,1524.438,1108.426,1510.452,1081.809,1491.093z"/>
		<path fill="#C1272D" d="M1018.227,1454.655c15.958,18.893,33.979,35.637,53.722,49.998c19.784,14.352,41.247,26.276,64.121,35.639
			l-220.442,210.986c-3.164,3.338-15.668,15.709-27.883,6.875c-12.11-8.855-4.252-24.564-2.541-27.654L1018.227,1454.655z"/>
		<path d="M870.636,1722.237c0,0-17.928,31.105,7.3,49.428c25.237,18.33,49.272-8.338,49.272-8.338l-11.581-12.049
			c-3.164,3.338-15.668,15.709-27.883,6.875c-12.11-8.855-4.252-24.564-2.541-27.654L870.636,1722.237z"/>
	</g>
	<g>
		<path fill="#C1272D" d="M1426.242,1491.093c-26.637,19.398-55.535,33.365-85.367,42.625l239.979,229.652
			c0,0,24.025,26.668,49.252,8.326c25.238-18.322,7.279-49.428,7.279-49.428l-144.262-299.176
			C1475.102,1448.62,1452.881,1471.765,1426.242,1491.093z"/>
		<path fill="#C1272D" d="M1371.982,1540.292c22.863-9.301,44.369-21.287,64.153-35.607c19.722-14.402,37.711-31.105,53.669-49.967
			l132.535,274.828c2.198,4.043,10.1,19.742-2.073,28.639c-12.163,8.783-24.669-3.537-27.073-6.105L1371.982,1540.292z"/>
		<path d="M1580.854,1763.37c0,0,24.025,26.668,49.252,8.326c25.238-18.322,7.279-49.428,7.279-49.428l-15.045,7.277
			c2.198,4.043,10.1,19.742-2.073,28.639c-12.163,8.783-24.669-3.537-27.073-6.105L1580.854,1763.37z"/>
	</g>
	<g>
		<path fill="#C1272D" d="M1532.69,1163.526c10.224,31.335,14.578,63.105,14.185,94.379l292.527-157.287
			c0,0,32.828-14.599,23.145-44.284c-9.633-29.646-44.764-22.181-44.764-22.181l-329.098,44.732
			C1507.41,1103.905,1522.56,1132.223,1532.69,1163.526z"/>
		<path fill="#C1272D" d="M1562.708,1230.355c-1.763-24.658-6.542-48.807-14.039-72.002c-7.601-23.248-17.929-45.521-30.94-66.507
			l302.357-41.144c4.488-0.819,21.898-3.506,26.574,10.846c4.615,14.277-10.99,22.376-14.193,23.848L1562.708,1230.355z"/>
		<path d="M1839.402,1100.618c0,0,32.828-14.599,23.145-44.284c-9.633-29.646-44.764-22.181-44.764-22.181l2.303,16.55
			c4.488-0.819,21.898-3.506,26.574,10.846c4.615,14.277-10.99,22.376-14.193,23.848L1839.402,1100.618z"/>
	</g>
</g>
</svg>
